# xmcd
#
# Track frame offsets: 
#        150
#        21961
#        41138
#        62469
#        85486
#        111321
#        123785
#        143683
#        160190
#        187279
#        205596
#
# Disc length: 3129 seconds
#
# Revision: 0
# Processed by: cddbd v1.5.2PL0 Copyright (c) Steve Scherf et al.
# Submitted via: ExactAudioCopy v1.0b1
#
DISCID=970c370b
DTITLE=Johnny Winter - Roots
DYEAR=2011
DGENRE=Blues
TTITLE0=T-Bone Shuffle (featuring Sonny Landreth)
TTITLE1=Further On Up The Road (featuring Jimmy Vivino)
TTITLE2=Done Somebody Wrong (featuring Warren Haynes)
TTITLE3=Got My Mojo Workin’
TTITLE4=Last Night (featuring John Popper)
TTITLE5=Maybellene (featuring Vince Gill)
TTITLE6=Bright Lights, Big City (featuring Susan Tedeschi)
TTITLE7=Honky Tonk (featuring Edgar Winter on sax)
TTITLE8=Dust My Broom (featuring Derek Trucks)
TTITLE9=Short Fat Fannie (featuring Paul Nelson)
TTITLE10=Come Back Baby (featuring John Medeski)
EXTD=
EXTT0=
EXTT1=
EXTT2=
EXTT3=
EXTT4=
EXTT5=
EXTT6=
EXTT7=
EXTT8=
EXTT9=
EXTT10=
PLAYORDER=
